<svg width="12" height="12" viewBox="0 0 12 12" fill="none" xmlns="http://www.w3.org/2000/svg">
<path d="M11.1089 5.74807C11.1089 8.82192 8.63765 11.3138 5.58914 11.3138C2.54063 11.3138 0.0693359 8.82192 0.0693359 5.74807C0.0693359 2.67421 2.54063 0.182373 5.58914 0.182373C8.63765 0.182373 11.1089 2.67421 11.1089 5.74807ZM4.95067 8.69506L9.046 4.56567C9.18507 4.42545 9.18507 4.19809 9.046 4.05787L8.54239 3.55007C8.40333 3.40982 8.17784 3.40982 8.03875 3.55007L4.69885 6.91772L3.13953 5.34543C3.00046 5.20521 2.77497 5.20521 2.63589 5.34543L2.13227 5.85323C1.99321 5.99345 1.99321 6.22081 2.13227 6.36103L4.44703 8.69503C4.58611 8.83528 4.81158 8.83528 4.95067 8.69506Z" fill="#1F9F0C"/>
</svg>
