<svg width="45" height="45" viewBox="0 0 45 45" fill="none" xmlns="http://www.w3.org/2000/svg">
<circle cx="22.5" cy="22.5" r="22.5" fill="#FF5A00"/>
<path d="M32.7568 31.1859L32.7559 31.185L25.8547 24.5354L25.8545 24.5352L24.2746 23.0329L32.7558 14.8812C32.9314 14.7124 33.0735 14.5252 33.1629 14.3191C33.2512 14.1154 33.3047 13.8936 33.3047 13.6707C33.3047 13.4348 33.2697 13.2116 33.1622 13.0041C33.0745 12.8022 32.9509 12.5981 32.7902 12.4437L32.7903 12.4436L32.7883 12.4419C32.6139 12.291 32.4198 12.1549 32.2063 12.0694C31.9921 11.9836 31.7445 11.95 31.5165 11.95C31.2853 11.95 31.0556 12.0013 30.828 12.0854L30.8279 12.0854L30.8267 12.0859C30.6132 12.1714 30.4186 12.3077 30.2599 12.4602L20.5191 21.8226C20.3589 21.9766 20.2349 22.1642 20.1465 22.3681L20.1465 22.3681L20.1459 22.3694C20.0582 22.5886 20.0047 22.81 20.0047 23.0331C20.0047 23.256 20.0582 23.4778 20.1465 23.6815C20.2349 23.8854 20.3589 24.073 20.5191 24.227L30.2599 33.5894L30.2599 33.5894L30.2609 33.5903C30.5981 33.8974 31.0408 34.05 31.4993 34.05C31.96 34.05 32.4026 33.8627 32.7214 33.5563C33.0575 33.2333 33.2356 32.8238 33.2358 32.3799C33.2533 31.9353 33.0752 31.509 32.7568 31.1859Z" fill="white" stroke="white" stroke-width="0.1"/>
<path d="M11.4981 14.8141L11.499 14.815L18.4002 21.4646L18.4004 21.4648L19.9803 22.9671L11.4991 31.1188C11.3235 31.2876 11.1813 31.4748 11.092 31.6809C11.0037 31.8846 10.9502 32.1064 10.9502 32.3293C10.9502 32.5652 10.9852 32.7884 11.0927 32.9959C11.1804 33.1978 11.3039 33.4019 11.4646 33.5563L11.4646 33.5564L11.4666 33.5581C11.641 33.709 11.8351 33.8451 12.0486 33.9306C12.2627 34.0164 12.5104 34.05 12.7384 34.05C12.9695 34.05 13.1992 33.9987 13.4269 33.9146L13.4269 33.9146L13.4282 33.9141C13.6417 33.8286 13.8363 33.6923 13.995 33.5398L23.7358 24.1774C23.896 24.0234 24.02 23.8358 24.1084 23.6319L24.1084 23.6319L24.1089 23.6306C24.1966 23.4114 24.2502 23.19 24.2502 22.9669C24.2502 22.744 24.1967 22.5222 24.1084 22.3185C24.02 22.1146 23.896 21.927 23.7358 21.773L13.995 12.4106L13.995 12.4106L13.994 12.4097C13.6567 12.1026 13.2141 11.95 12.7556 11.95C12.2949 11.95 11.8523 12.1373 11.5335 12.4437C11.1974 12.7667 11.0193 13.1762 11.019 13.6201C11.0015 14.0647 11.1797 14.491 11.4981 14.8141Z" fill="white" stroke="white" stroke-width="0.1"/>
</svg>
