<svg width="23" height="23" viewBox="0 0 23 23" fill="none" xmlns="http://www.w3.org/2000/svg">
<rect width="23" height="22.9992" rx="11.4996" fill="#FF5A00"/>
<path d="M15.7807 11.4996C15.7807 11.6889 15.7081 11.8718 15.5724 12.0043C15.4399 12.14 15.2568 12.2157 15.0675 12.2157H12.2147V15.0674C12.2147 15.2566 12.139 15.4396 12.0033 15.5721C11.8708 15.7046 11.6909 15.7803 11.5016 15.7803C11.3122 15.7803 11.1292 15.7046 10.9966 15.5721C10.8609 15.4396 10.7852 15.2566 10.7852 15.0674V12.2157H7.93246C7.74312 12.2157 7.56008 12.14 7.42755 12.0043C7.29501 11.8718 7.21927 11.6889 7.21927 11.4996C7.21927 11.3103 7.29501 11.1305 7.42755 10.9949C7.56008 10.8624 7.74312 10.7867 7.93246 10.7867H10.7852V7.93495C10.7852 7.74568 10.8609 7.56272 10.9966 7.43023C11.1292 7.29458 11.3122 7.21887 11.5016 7.21887C11.6909 7.21887 11.8708 7.29458 12.0033 7.43023C12.139 7.56272 12.2147 7.74568 12.2147 7.93495V10.7867H15.0675C15.2568 10.7867 15.4399 10.8624 15.5724 10.9949C15.7081 11.1305 15.7807 11.3103 15.7807 11.4996Z" fill="white"/>
</svg>
