<svg width="23" height="20" viewBox="0 0 23 20" fill="none" xmlns="http://www.w3.org/2000/svg">
<path d="M3.69423 8.81047L11.5183 16.6346L19.3424 8.81047C20.0342 8.11872 20.4228 7.18051 20.4228 6.20223C20.4228 5.22396 20.0342 4.28574 19.3424 3.594C18.9999 3.25148 18.5933 2.97978 18.1458 2.79441C17.6982 2.60904 17.2186 2.51363 16.7342 2.51363C15.7559 2.51363 14.8177 2.90225 14.126 3.594L11.5183 6.20162L8.91071 3.59523C8.2172 2.91276 7.28211 2.53198 6.30912 2.53582C5.33613 2.53967 4.40408 2.92783 3.71599 3.61576C3.0279 4.30369 2.63952 5.23565 2.63544 6.20864C2.63136 7.18162 3.01193 8.1168 3.69423 8.81047ZM10.6491 1.85435L11.5183 2.72356L12.3875 1.85435C12.9574 1.27943 13.6353 0.82274 14.3822 0.510495C15.129 0.19825 15.9302 0.0366008 16.7398 0.0348282C17.5493 0.0330555 18.3512 0.191194 19.0994 0.500166C19.8477 0.809137 20.5275 1.26286 21.0999 1.83527C21.6723 2.40769 22.1261 3.08753 22.435 3.83577C22.744 4.58401 22.9021 5.38591 22.9004 6.19543C22.8986 7.00495 22.7369 7.80615 22.4247 8.55302C22.1125 9.2999 21.6558 9.97775 21.0808 10.5477L12.3888 19.241C12.2746 19.3553 12.139 19.446 11.9897 19.5078C11.8405 19.5697 11.6805 19.6015 11.5189 19.6015C11.3574 19.6015 11.1974 19.5697 11.0481 19.5078C10.8989 19.446 10.7633 19.3553 10.6491 19.241L1.95581 10.5489C1.37308 9.98081 0.908936 9.30269 0.590319 8.55384C0.271702 7.80499 0.10495 7.00033 0.0997356 6.18654C0.0945214 5.37275 0.250949 4.56602 0.559944 3.81315C0.86894 3.06028 1.32435 2.37626 1.89976 1.80077C2.47517 1.22528 3.15913 0.769767 3.91195 0.460665C4.66478 0.151563 5.47149 -0.00497836 6.28528 0.000120674C7.09908 0.0052197 7.90376 0.171858 8.65265 0.490369C9.40154 0.80888 10.0797 1.27292 10.6479 1.85558L10.6491 1.85435Z" fill="#7C7C7C"/>
</svg>
