<svg width="26" height="23" viewBox="0 0 26 23" fill="none" xmlns="http://www.w3.org/2000/svg">
<path d="M4.48757 10.2629L13.2424 19.2601L21.9973 10.2629C22.7713 9.46741 23.2062 8.38853 23.2062 7.26357C23.2062 6.13861 22.7713 5.05973 21.9973 4.26426C21.614 3.87039 21.159 3.55795 20.6582 3.34478C20.1575 3.13162 19.6208 3.02191 19.0788 3.02191C17.9841 3.02191 16.9343 3.4688 16.1602 4.26426L13.2424 7.26286L10.3246 4.26568C9.54858 3.48088 8.50226 3.04301 7.41352 3.04743C6.32479 3.05185 5.28186 3.49822 4.51192 4.28929C3.74197 5.08037 3.30739 6.15206 3.30282 7.27093C3.29826 8.3898 3.7241 9.4652 4.48757 10.2629ZM12.2698 2.26378L13.2424 3.26331L14.215 2.26378C14.8527 1.60266 15.6112 1.07749 16.4469 0.718431C17.2827 0.359368 18.1792 0.173482 19.085 0.171444C19.9908 0.169405 20.8881 0.351255 21.7254 0.706552C22.5626 1.06185 23.3233 1.5836 23.9638 2.24184C24.6044 2.90009 25.112 3.68186 25.4578 4.54229C25.8035 5.40272 25.9804 6.32485 25.9785 7.25574C25.9765 8.18664 25.7956 9.10797 25.4462 9.96683C25.0968 10.8257 24.5858 11.6052 23.9425 12.2605L14.2164 22.2573C14.0886 22.3887 13.9369 22.493 13.7699 22.5642C13.6029 22.6353 13.4239 22.6719 13.2431 22.6719C13.0623 22.6719 12.8833 22.6353 12.7163 22.5642C12.5493 22.493 12.3976 22.3887 12.2698 22.2573L2.54235 12.2619C1.89029 11.6087 1.37094 10.8289 1.01442 9.96777C0.657896 9.10664 0.471308 8.18133 0.465473 7.24552C0.459639 6.30971 0.634675 5.38202 0.980428 4.51627C1.32618 3.65052 1.83577 2.86394 2.47963 2.20216C3.12349 1.54038 3.88881 1.01658 4.73119 0.661129C5.57357 0.305682 6.47625 0.125669 7.38685 0.131532C8.29745 0.137396 9.19786 0.329019 10.0358 0.695287C10.8738 1.06155 11.6327 1.59517 12.2684 2.26519L12.2698 2.26378Z" fill="white"/>
</svg>
