<svg width="250" height="250" viewBox="0 0 250 250" fill="none" xmlns="http://www.w3.org/2000/svg">
<circle cx="125" cy="125" r="122.5" fill="white" fill-opacity="0.86" stroke="url(#paint0_radial_558_34)" stroke-width="5"/>
<path d="M79.976 140C79.2933 140 78.7813 139.659 78.44 138.976C77.544 137.227 76.584 135.029 75.56 132.384C74.5787 129.739 73.6187 126.88 72.68 123.808C71.7413 120.693 70.8453 117.557 69.992 114.4C69.1813 111.243 68.4773 108.256 67.88 105.44C67.3253 102.581 66.8987 100.085 66.6 97.952C66.5573 97.6533 66.5573 97.4187 66.6 97.248C66.6853 97.0347 66.8987 96.928 67.24 96.928C67.2827 96.928 67.56 96.928 68.072 96.928C68.6267 96.928 69.2453 96.928 69.928 96.928C70.6107 96.928 71.2293 96.928 71.784 96.928C72.3813 96.928 72.744 96.928 72.872 96.928C73.1707 96.928 73.384 96.992 73.512 97.12C73.64 97.2053 73.7253 97.4187 73.768 97.76C73.9813 99.2533 74.344 101.195 74.856 103.584C75.368 105.973 76.0933 109.045 77.032 112.8C77.7147 115.488 78.312 117.877 78.824 119.968C79.3787 122.016 79.8907 123.808 80.36 125.344C80.8293 126.837 81.256 128.096 81.64 129.12C81.7253 129.333 81.7893 129.504 81.832 129.632C81.9173 129.717 82.0027 129.76 82.088 129.76C82.1733 129.76 82.216 129.76 82.216 129.76C82.216 129.76 82.2587 129.76 82.344 129.76C82.4293 129.76 82.4933 129.696 82.536 129.568C82.6213 129.44 82.6853 129.291 82.728 129.12C83.0267 128.395 83.3467 127.52 83.688 126.496C84.072 125.429 84.4773 124.277 84.904 123.04C85.3307 121.76 85.736 120.48 86.12 119.2C86.504 117.92 86.8667 116.704 87.208 115.552C87.5493 114.4 87.8053 113.355 87.976 112.416C88.0613 111.051 88.104 109.557 88.104 107.936C88.1467 106.315 88.1467 104.757 88.104 103.264C88.104 101.771 88.104 100.533 88.104 99.552C88.104 98.528 88.104 97.9733 88.104 97.888C88.0613 97.5893 88.0613 97.3547 88.104 97.184C88.1467 96.9707 88.36 96.864 88.744 96.864C88.872 96.864 89.192 96.864 89.704 96.864C90.2587 96.864 90.8773 96.864 91.56 96.864C92.2427 96.864 92.8613 96.864 93.416 96.864C93.9707 96.864 94.312 96.864 94.44 96.864C94.696 96.864 94.888 96.928 95.016 97.056C95.144 97.1413 95.208 97.376 95.208 97.76C95.208 99.5947 95.272 101.472 95.4 103.392C95.5707 105.269 95.7627 106.997 95.976 108.576C96.1893 110.112 96.3813 111.371 96.552 112.352C96.9787 115.083 97.5973 117.813 98.408 120.544C99.2187 123.275 100.136 126.048 101.16 128.864C101.288 129.205 101.373 129.44 101.416 129.568C101.501 129.696 101.587 129.76 101.672 129.76C101.757 129.76 101.8 129.76 101.8 129.76C101.843 129.76 101.885 129.76 101.928 129.76C102.056 129.76 102.163 129.611 102.248 129.312C102.504 128.715 102.867 127.712 103.336 126.304C103.805 124.853 104.36 123.061 105 120.928C105.64 118.752 106.301 116.299 106.984 113.568C107.496 111.691 107.923 110.069 108.264 108.704C108.605 107.339 108.904 106.08 109.16 104.928C109.416 103.776 109.651 102.645 109.864 101.536C110.077 100.427 110.291 99.232 110.504 97.952C110.589 97.5253 110.696 97.248 110.824 97.12C110.952 96.992 111.144 96.928 111.4 96.928C111.528 96.928 111.869 96.928 112.424 96.928C112.979 96.928 113.576 96.928 114.216 96.928C114.899 96.928 115.517 96.928 116.072 96.928C116.627 96.928 116.968 96.928 117.096 96.928C117.693 96.928 117.885 97.312 117.672 98.08C117.331 99.9147 116.84 102.219 116.2 104.992C115.56 107.723 114.813 110.688 113.96 113.888C113.149 117.088 112.296 120.288 111.4 123.488C110.504 126.645 109.587 129.589 108.648 132.32C107.709 135.008 106.792 137.227 105.896 138.976C105.853 139.147 105.725 139.36 105.512 139.616C105.299 139.872 105 140 104.616 140C104.275 140 103.741 140 103.016 140C102.333 140 101.629 140 100.904 140C100.221 140 99.688 140 99.304 140C99.048 140 98.792 139.851 98.536 139.552C98.3227 139.253 98.1733 139.061 98.088 138.976C97.5333 137.824 96.9147 136.48 96.232 134.944C95.592 133.365 94.9733 131.68 94.376 129.888C93.7787 128.053 93.1813 126.197 92.584 124.32C92.456 123.851 92.3067 123.531 92.136 123.36C91.9653 123.189 91.752 123.488 91.496 124.256C90.8133 126.432 90.216 128.288 89.704 129.824C89.2347 131.317 88.808 132.597 88.424 133.664C88.0827 134.731 87.7413 135.691 87.4 136.544C87.0587 137.355 86.696 138.165 86.312 138.976C86.184 139.317 85.9707 139.573 85.672 139.744C85.416 139.915 85.2027 140 85.032 140C84.6907 140 84.1573 140 83.432 140C82.7493 140 82.0667 140 81.384 140C80.744 140 80.2747 140 79.976 140ZM133.909 140.448C131.776 140.448 129.77 140.213 127.893 139.744C126.016 139.275 124.501 138.357 123.349 136.992C122.24 135.584 121.685 133.536 121.685 130.848C121.685 128.629 122.069 126.816 122.837 125.408C123.648 124 124.693 122.933 125.973 122.208C127.253 121.44 128.576 120.907 129.941 120.608C131.349 120.309 132.629 120.16 133.781 120.16C134.805 120.16 135.786 120.203 136.725 120.288C137.706 120.373 138.56 120.48 139.285 120.608C139.754 120.736 139.989 120.416 139.989 119.648C139.989 117.771 139.456 116.448 138.389 115.68C137.322 114.912 135.786 114.528 133.781 114.528C132.16 114.528 130.602 114.827 129.109 115.424C127.658 115.979 126.442 116.512 125.461 117.024C125.034 117.237 124.736 117.323 124.565 117.28C124.437 117.195 124.352 116.96 124.309 116.576L123.797 113.312C123.754 112.885 123.754 112.587 123.797 112.416C123.882 112.245 124.096 112.053 124.437 111.84C125.504 111.157 126.869 110.603 128.533 110.176C130.197 109.707 131.989 109.472 133.909 109.472C136.768 109.472 139.029 109.792 140.693 110.432C142.4 111.072 143.68 111.947 144.533 113.056C145.386 114.165 145.962 115.424 146.261 116.832C146.56 118.24 146.709 119.712 146.709 121.248C146.709 123.168 146.688 125.003 146.645 126.752C146.645 128.501 146.602 130.229 146.517 131.936C146.474 133.643 146.368 135.371 146.197 137.12C146.112 137.589 145.984 137.952 145.813 138.208C145.642 138.421 145.28 138.635 144.725 138.848C144.128 139.147 143.338 139.403 142.357 139.616C141.418 139.787 140.416 139.936 139.349 140.064C138.282 140.192 137.258 140.277 136.277 140.32C135.338 140.405 134.549 140.448 133.909 140.448ZM134.293 136.096C134.677 136.096 135.125 136.075 135.637 136.032C136.149 135.989 136.661 135.904 137.173 135.776C137.728 135.605 138.176 135.413 138.517 135.2C138.901 134.944 139.114 134.624 139.157 134.24C139.285 133.131 139.392 131.893 139.477 130.528C139.562 129.12 139.584 127.797 139.541 126.56C139.541 125.92 139.306 125.493 138.837 125.28C138.368 125.024 137.664 124.853 136.725 124.768C135.829 124.683 134.976 124.64 134.165 124.64C133.653 124.64 133.077 124.725 132.437 124.896C131.797 125.067 131.178 125.365 130.581 125.792C130.026 126.219 129.557 126.837 129.173 127.648C128.789 128.459 128.597 129.525 128.597 130.848C128.597 131.957 128.832 132.917 129.301 133.728C129.77 134.496 130.432 135.093 131.285 135.52C132.138 135.904 133.141 136.096 134.293 136.096ZM159.999 101.472C159.999 102.624 159.764 103.499 159.295 104.096C158.826 104.651 157.823 104.928 156.287 104.928C154.794 104.928 153.77 104.651 153.215 104.096C152.703 103.499 152.447 102.624 152.447 101.472C152.447 100.491 152.703 99.7013 153.215 99.104C153.77 98.5067 154.794 98.208 156.287 98.208C157.908 98.208 158.932 98.5067 159.359 99.104C159.786 99.7013 159.999 100.491 159.999 101.472ZM159.807 139.296C159.807 139.765 159.551 140 159.039 140H153.471C153.002 140 152.767 139.765 152.767 139.296V110.496C152.767 110.027 153.002 109.792 153.471 109.792H159.039C159.551 109.792 159.807 110.027 159.807 110.496V139.296ZM177.406 140C174.59 140 172.478 139.424 171.07 138.272C169.705 137.077 168.809 135.392 168.382 133.216C168.041 131.424 167.849 129.568 167.806 127.648C167.763 125.728 167.742 123.787 167.742 121.824C167.742 120.544 167.763 119.371 167.806 118.304C167.849 117.237 167.891 116.107 167.934 114.912C167.934 114.485 167.742 114.272 167.358 114.272H164.542C164.286 114.272 164.094 114.229 163.966 114.144C163.881 114.059 163.838 113.845 163.838 113.504V110.624C163.838 110.197 163.881 109.963 163.966 109.92C164.094 109.835 164.329 109.792 164.67 109.792H167.55C167.849 109.792 168.019 109.728 168.062 109.6C168.105 109.429 168.147 109.173 168.19 108.832L168.446 103.84C168.446 103.371 168.681 103.136 169.15 103.136H174.654C174.825 103.136 174.995 103.2 175.166 103.328C175.379 103.456 175.465 103.627 175.422 103.84L175.102 108.832C175.059 109.259 175.059 109.536 175.102 109.664C175.187 109.749 175.358 109.792 175.614 109.792H181.63C182.014 109.792 182.227 109.835 182.27 109.92C182.355 110.005 182.398 110.261 182.398 110.688V113.44C182.398 113.781 182.334 114.016 182.206 114.144C182.121 114.229 181.907 114.272 181.566 114.272H175.55C175.337 114.272 175.166 114.336 175.038 114.464C174.91 114.592 174.846 114.805 174.846 115.104C174.803 116.299 174.761 117.515 174.718 118.752C174.718 119.947 174.697 121.184 174.654 122.464C174.654 124 174.675 125.579 174.718 127.2C174.803 128.821 175.017 130.379 175.358 131.872C175.571 132.811 175.955 133.493 176.51 133.92C177.065 134.347 177.833 134.56 178.814 134.56C179.369 134.56 179.902 134.496 180.414 134.368C180.926 134.197 181.395 134.048 181.822 133.92C182.249 133.664 182.505 133.579 182.59 133.664C182.718 133.749 182.846 133.984 182.974 134.368L183.998 137.632C184.126 137.931 184.083 138.187 183.87 138.4C183.657 138.613 183.209 138.848 182.526 139.104C182.057 139.275 181.502 139.445 180.862 139.616C180.265 139.744 179.667 139.851 179.07 139.936C178.473 139.979 177.918 140 177.406 140Z" fill="#7C7C7C"/>
<defs>
<radialGradient id="paint0_radial_558_34" cx="0" cy="0" r="1" gradientUnits="userSpaceOnUse" gradientTransform="translate(-30.5 58.5) rotate(50.923) scale(246.683)">
<stop offset="0.530616" stop-color="#F7F8F7"/>
<stop offset="1" stop-color="#FF5A00"/>
</radialGradient>
</defs>
</svg>
